<svg xmlns="http://www.w3.org/2000/svg" viewBox="0 0 66.58 60.49"><defs><style>.cls-1{fill:#ffcd36;}.cls-2{fill:#3a54db;}</style></defs><title>Asset 12</title><g id="Layer_2" data-name="Layer 2"><g id="Layer_1-2" data-name="Layer 1"><path class="cls-1" d="M66.83,30.21v23.6a6.92,6.92,0,0,1-6.91,6.92H38.61a6.93,6.93,0,0,1-6.92-6.92V30.21A1.34,1.34,0,0,1,33,28.87h7.41V27.33a8.83,8.83,0,0,1,17.65,0v1.54h7.41A1.34,1.34,0,0,1,66.83,30.21Zm-2.69,23.6V31.55H58.09V34.9a1.34,1.34,0,1,1-2.69,0V31.55H43.13V34.9a1.35,1.35,0,0,1-2.7,0V31.55h-6V53.81A4.22,4.22,0,0,0,38.61,58H59.92A4.23,4.23,0,0,0,64.15,53.81ZM55.4,28.87V27.33a6.13,6.13,0,1,0-12.27,0v1.54Z" transform="translate(-0.25 -0.25)"/><path class="cls-2" d="M43.54,12v4a1.34,1.34,0,0,1-2.69,0V13.31H32.69v5.06a1.34,1.34,0,0,1-2.69,0V13.31H13.8v5.06a1.35,1.35,0,0,1-2.7,0V13.31H3V52.1a6,6,0,0,0,6,5.94H27.67a1.35,1.35,0,0,1,0,2.7H8.9A8.65,8.65,0,0,1,.25,52.1V12A1.34,1.34,0,0,1,1.6,10.61h9.5a10.8,10.8,0,0,1,21.58,0h9.52A1.34,1.34,0,0,1,43.54,12ZM13.8,10.61H30a8.11,8.11,0,0,0-16.19,0Z" transform="translate(-0.25 -0.25)"/></g></g></svg>