<svg xmlns="http://www.w3.org/2000/svg" viewBox="0 0 79.86 81.21"><defs><style>.cls-1{fill:#3a54db;}.cls-2{fill:#ffcd36;}</style></defs><title>Asset 16</title><g id="Layer_2" data-name="Layer 2"><g id="Layer_1-2" data-name="Layer 1"><path class="cls-1" d="M63.46,18.82l-2.7,2.69a1.34,1.34,0,0,1-1.91,0,1.35,1.35,0,0,1,0-1.91l2.69-2.7a4.08,4.08,0,1,0,1.92,1.92ZM79.71.65a1.35,1.35,0,0,1,0,1.91l-5,5V40.43L36.11,80a4.77,4.77,0,0,1-6.76,0L1.65,52.36a4.77,4.77,0,0,1,0-6.75L41.26,5.67H72.78l5-5A1.35,1.35,0,0,1,79.71.65ZM72,39.33v-29l-6.55,6.54a6.73,6.73,0,1,1-1.91-1.92l6.54-6.54H42.39L3.57,47.52A2,2,0,0,0,3,49a2.06,2.06,0,0,0,.61,1.46l27.7,27.7a2.07,2.07,0,0,0,2.93,0Z" transform="translate(-0.25 -0.25)"/><path class="cls-2" d="M54.27,26.94a1.35,1.35,0,0,1,0,1.91l-1,1a12.2,12.2,0,0,1-.9,16.22,1.35,1.35,0,0,1-1.91-1.91,9.5,9.5,0,0,0,.88-12.37L39.22,43.91l1,8.24a8.55,8.55,0,0,1-1.83,6.4,8,8,0,0,1-5.57,3c-.34,0-.68.05-1,.05a12.15,12.15,0,0,1-7.59-2.67l-1.55,1.55a1.35,1.35,0,1,1-1.91-1.92L22.32,57a12.2,12.2,0,0,1,.9-16.22,1.35,1.35,0,0,1,1.91,1.92A9.47,9.47,0,0,0,24.26,55l12.1-12.11-1-8.24a8.59,8.59,0,0,1,1.83-6.4,8,8,0,0,1,5.57-3,12.09,12.09,0,0,1,8.62,2.62l1-1A1.35,1.35,0,0,1,54.27,26.94ZM38.79,40.51,49.41,29.88A9.54,9.54,0,0,0,43,28a5.32,5.32,0,0,0-3.69,2A5.78,5.78,0,0,0,38,34.35ZM36.31,56.84a5.79,5.79,0,0,0,1.25-4.35l-.77-6.15L26.17,57a9.57,9.57,0,0,0,6.46,1.86A5.25,5.25,0,0,0,36.31,56.84Z" transform="translate(-0.25 -0.25)"/></g></g></svg>