<svg xmlns="http://www.w3.org/2000/svg" viewBox="0 0 97.39 86.07"><defs><style>.cls-1{fill:#3a54db;}.cls-2{fill:#ffcd36;}</style></defs><title>Asset 17</title><g id="Layer_2" data-name="Layer 2"><g id="Layer_1-2" data-name="Layer 1"><path class="cls-1" d="M97.64,79.62v4.89a1.81,1.81,0,0,1-3.62,0V79.62a1.65,1.65,0,0,0-.59-1.28,53.25,53.25,0,0,0-9.79-6.28,2.12,2.12,0,0,1-1.19-1.91V63.27a1.8,1.8,0,0,1,.8-1.49,1.42,1.42,0,0,0,.63-1.18V53.48a4.62,4.62,0,0,0-4.61-4.61H77.74a4.62,4.62,0,0,0-4.62,4.61V60.6a1.4,1.4,0,0,0,.64,1.18,1.76,1.76,0,0,1,.79,1.49v6.88a2.1,2.1,0,0,1-1.19,1.91,54.75,54.75,0,0,0-9.78,6.28,1.66,1.66,0,0,0-.6,1.28v4.89a1.81,1.81,0,1,1-3.62,0V79.62a5.25,5.25,0,0,1,1.91-4.06,58.33,58.33,0,0,1,9.67-6.32V64.1a5,5,0,0,1-1.44-3.52V53.46a8.25,8.25,0,0,1,8.24-8.23h1.53a8.25,8.25,0,0,1,8.23,8.23v7.12a5,5,0,0,1-1.43,3.52v5.14a57.93,57.93,0,0,1,9.66,6.32A5.19,5.19,0,0,1,97.64,79.62Z" transform="translate(-0.25 -0.25)"/><path class="cls-1" d="M68.07,34.61V39.5a1.81,1.81,0,1,1-3.62,0V34.61a1.67,1.67,0,0,0-.59-1.27,53.53,53.53,0,0,0-9.79-6.29,2.12,2.12,0,0,1-1.19-1.91V18.26a1.83,1.83,0,0,1,.79-1.49,1.38,1.38,0,0,0,.64-1.17V8.48A4.61,4.61,0,0,0,49.7,3.87H48.16a4.61,4.61,0,0,0-4.61,4.61V15.6a1.38,1.38,0,0,0,.64,1.17A1.8,1.8,0,0,1,45,18.26v6.88a2.14,2.14,0,0,1-1.19,1.91A55,55,0,0,0,34,33.34a1.67,1.67,0,0,0-.59,1.27V39.5a1.81,1.81,0,0,1-3.62,0V34.63a5.24,5.24,0,0,1,1.91-4.06,58.34,58.34,0,0,1,9.66-6.32V19.12a5,5,0,0,1-1.43-3.52V8.48A8.23,8.23,0,0,1,48.16.25H49.7a8.24,8.24,0,0,1,8.23,8.23v7.1A5,5,0,0,1,56.5,19.1v5.13a57.52,57.52,0,0,1,9.66,6.32A5.21,5.21,0,0,1,68.07,34.61Z" transform="translate(-0.25 -0.25)"/><path class="cls-2" d="M62.44,60.68a1.81,1.81,0,0,1-1.81,3.13l-7.37-4.26a6.12,6.12,0,0,1-8.36,0l-7.38,4.26a1.76,1.76,0,0,1-.89.23,1.79,1.79,0,0,1-1.57-.89,1.84,1.84,0,0,1,.61-2.47L43,56.43a6.13,6.13,0,0,1,4.2-7.26V40.66a1.81,1.81,0,1,1,3.62,0v8.51a6.13,6.13,0,0,1,4.19,7.26Zm-9.36-5.6a4,4,0,1,0-4,4A4,4,0,0,0,53.08,55.08Z" transform="translate(-0.25 -0.25)"/><path class="cls-2" d="M49.1,51.1a4,4,0,1,1-4,4A4,4,0,0,1,49.1,51.1Zm2.54,4A2.55,2.55,0,1,0,49.1,57.6,2.53,2.53,0,0,0,51.64,55.06Z" transform="translate(-0.25 -0.25)"/><path class="cls-1" d="M49.1,52.51a2.55,2.55,0,1,1-2.55,2.55A2.53,2.53,0,0,1,49.1,52.51Z" transform="translate(-0.25 -0.25)"/><path class="cls-1" d="M38.54,79.6v4.89a1.81,1.81,0,0,1-3.62,0V79.6a1.66,1.66,0,0,0-.6-1.28A53.31,53.31,0,0,0,24.54,72a2.11,2.11,0,0,1-1.2-1.91V63.25a1.8,1.8,0,0,1,.8-1.49,1.4,1.4,0,0,0,.64-1.18V53.46a4.62,4.62,0,0,0-4.62-4.61H18.63A4.62,4.62,0,0,0,14,53.46v7.12a1.42,1.42,0,0,0,.63,1.18,1.77,1.77,0,0,1,.8,1.49v6.88A2.12,2.12,0,0,1,14.26,72a54.69,54.69,0,0,0-9.79,6.28,1.66,1.66,0,0,0-.6,1.28v4.89a1.81,1.81,0,0,1-3.62,0V79.6a5.25,5.25,0,0,1,1.91-4.06,58.33,58.33,0,0,1,9.67-6.32V64.08a5,5,0,0,1-1.43-3.52V53.44a8.25,8.25,0,0,1,8.23-8.23h1.53a8.25,8.25,0,0,1,8.24,8.23v7.12A5,5,0,0,1,27,64.08v5.14a58.33,58.33,0,0,1,9.67,6.32A5.22,5.22,0,0,1,38.54,79.6Z" transform="translate(-0.25 -0.25)"/></g></g></svg>