<svg xmlns="http://www.w3.org/2000/svg" viewBox="0 0 75.82 82.47"><defs><style>.cls-1{fill:#3a54db;}.cls-2{fill:#ffcd36;}</style></defs><title>Asset 15</title><g id="Layer_2" data-name="Layer 2"><g id="Layer_1-2" data-name="Layer 1"><path class="cls-1" d="M76.07,81.39v1.33H73.41V81.39a9.33,9.33,0,0,0-9.31-9.31H53.91L41.48,81.75,29.06,72.08H18.87a9.8,9.8,0,0,0-1.33.11V82.72H14.88V73a9.32,9.32,0,0,0-5.32,8.4v1.33H6.9V81.39a12,12,0,0,1,8-11.27V61.44a5.32,5.32,0,0,0-5.32-5.32H8.23a8,8,0,0,1-8-8V37.49A8,8,0,0,1,6.9,29.63V28.18a4,4,0,0,1,4-4H13a5.26,5.26,0,0,1,2.32-2.13A14.62,14.62,0,0,1,8.23,9.56V8.23h14.3A26.53,26.53,0,0,1,67.6,22a6,6,0,0,1,3.15,5.67v5.68a12.34,12.34,0,0,1-2.9,8A25.62,25.62,0,0,1,55.07,60.23l-.28.16v9H64.1A12,12,0,0,1,76.07,81.39Zm-8-48V27.69c0-2.13-1-3.5-2.68-3.5H17.56a2.68,2.68,0,0,0-2.68,2.69v6.26a9.49,9.49,0,0,0,7.56,9.51,9.3,9.3,0,0,0,7.89-2.16l.38-.34H52.26l.37.34a9.29,9.29,0,0,0,15.46-7.12ZM64.6,44a11.34,11.34,0,0,1-2.41,1,12.78,12.78,0,0,1-3.43.48,11.79,11.79,0,0,1-7.49-2.66H31.7A12,12,0,0,1,22,45.27,11.2,11.2,0,0,1,18.36,44a22.9,22.9,0,0,0,10.85,14L34.67,61A14.11,14.11,0,0,0,48.3,61l5.46-3.07A23,23,0,0,0,64.6,44ZM57.39,16.24a8.72,8.72,0,0,0,7.41,5.27A24.1,24.1,0,0,0,41.48,2.91a23.63,23.63,0,0,0-17.41,7.56l-.4.42H11a12,12,0,0,0,11.9,10.64H44.17a8.73,8.73,0,0,0,8-5.29l2.6-6.07Zm-5.93,5.29h6.66a11.41,11.41,0,0,1-3.18-4.24l-.15-.36-.16.36A11.38,11.38,0,0,1,51.46,21.53Zm.67,48.57V61.88L49.61,63.3a16.56,16.56,0,0,1-16.25,0l-2.52-1.42V70.1l10.64,8.28Zm-23.95-.68v-9l-.28-.17a25.6,25.6,0,0,1-12.79-19A12.72,12.72,0,0,1,13,37.49h-2.1a4,4,0,0,1-4-4V32.36a5.32,5.32,0,0,0-4,5.13V48.14a5.32,5.32,0,0,0,5.32,5.32H9.56a8,8,0,0,1,8,8V69.5a11.73,11.73,0,0,1,1.33-.08Zm-16-34.59v-8H10.89a1.33,1.33,0,0,0-1.33,1.33v5.35a1.3,1.3,0,0,0,1.33,1.3Z" transform="translate(-0.25 -0.25)"/><path class="cls-2" d="M68.09,27.69v5.68a9.29,9.29,0,0,1-15.46,7.12l-.37-.34H30.71l-.38.34a9.3,9.3,0,0,1-7.89,2.16,9.49,9.49,0,0,1-7.56-9.51V26.88a2.68,2.68,0,0,1,2.68-2.69H65.41C67,24.19,68.09,25.56,68.09,27.69Zm-5.32,8.47V33.5h-4v2.66Zm-6.65,0V33.5H20.2v2.66Z" transform="translate(-0.25 -0.25)"/><rect class="cls-1" x="58.53" y="33.25" width="3.99" height="2.66"/><rect class="cls-1" x="19.95" y="33.25" width="35.92" height="2.66"/></g></g></svg>