<svg xmlns="http://www.w3.org/2000/svg" viewBox="0 0 513.22 85.43"><defs><style>.cls-1{fill:#9198ad;}.cls-2{font-size:70.9px;fill:#092fc6;font-family:Raleway-Medium, Raleway;letter-spacing:0.2em;}.cls-3{letter-spacing:0.18em;}.cls-4{letter-spacing:0.13em;}.cls-5{letter-spacing:0.17em;}</style></defs><title>Asset 2</title><g id="Layer_2" data-name="Layer 2"><g id="Layer_1-2" data-name="Layer 1"><rect class="cls-1" x="16.39" y="17.94" width="6.14" height="49.56"/><rect class="cls-1" x="34.55" y="17.76" width="6.14" height="75.24" transform="translate(93 17.76) rotate(90)"/><rect class="cls-1" x="17.09" y="0.85" width="5.61" height="39.79" transform="translate(40.64 0.85) rotate(90)"/><rect class="cls-1" x="10.49" y="5.9" width="17.94" height="6.14" transform="translate(28.43 -10.49) rotate(90)"/><rect class="cls-1" x="50.51" y="1.41" width="8.97" height="6.14" transform="translate(59.48 -50.51) rotate(90)"/><rect class="cls-1" x="14.98" y="77.88" width="8.97" height="6.14" transform="translate(100.41 61.49) rotate(90)"/><g id="Play"><path class="cls-1" d="M43,36.87,33.51,31a1.7,1.7,0,0,0-.89-.13.92.92,0,0,0-1,1L31.65,44a.93.93,0,0,0,1,1,1.7,1.7,0,0,0,.89-.14l9.42-6c.77-.47.64-1,.64-1S43.77,37.33,43,36.87Z"/></g><text class="cls-2" transform="translate(33.56 68.22)">TREN<tspan class="cls-3" x="244.33" y="0">D</tspan><tspan class="cls-4" x="308" y="0">T</tspan><tspan x="360.96" y="0">A</tspan><tspan class="cls-5" x="423.14" y="0">P</tspan></text></g></g></svg>