<svg xmlns="http://www.w3.org/2000/svg" viewBox="0 0 67.31 75.11"><defs><style>.cls-1{fill:#3a54db;}.cls-2{fill:#ffcd36;}</style></defs><title>Asset 10</title><g id="Layer_2" data-name="Layer 2"><g id="Layer_1-2" data-name="Layer 1"><path class="cls-1" d="M67.56,22.73a7.15,7.15,0,0,1-5.83,7V45.84A7.2,7.2,0,0,1,60.34,60.1,7.14,7.14,0,0,1,55,57.72L40.73,66a6.71,6.71,0,0,1,.36,2.22A7.2,7.2,0,1,1,27,66L12.78,57.72A7.19,7.19,0,1,1,5.93,45.87l0-16.13a7.2,7.2,0,1,1,7-11.76L27.09,9.75a7.19,7.19,0,1,1,14-2.3,6.88,6.88,0,0,1-.39,2.32L54.94,18a7.12,7.12,0,0,1,5.41-2.48A7.2,7.2,0,0,1,67.56,22.73ZM66.15,52.91a5.8,5.8,0,1,0-5.8,5.8A5.79,5.79,0,0,0,66.15,52.91ZM64.77,22.73a4.42,4.42,0,1,0-4.42,4.4A4.42,4.42,0,0,0,64.77,22.73ZM59,45.84V29.76a7.21,7.21,0,0,1-5.42-9.36L39.34,12.16a7.21,7.21,0,0,1-10.85,0L14.27,20.4A7.17,7.17,0,0,1,8.7,29.79l0,16A7.23,7.23,0,0,1,14.4,51a7.58,7.58,0,0,1,.26,1.93,7.17,7.17,0,0,1-.44,2.43l14.22,8.19A7.08,7.08,0,0,1,33.91,61a7.16,7.16,0,0,1,5.47,2.54L53.6,55.32a7.09,7.09,0,0,1-.42-2.43A7.14,7.14,0,0,1,59,45.84ZM39.71,7.46a5.8,5.8,0,1,0-5.8,5.8A5.79,5.79,0,0,0,39.71,7.46ZM38.33,68.18a4.42,4.42,0,1,0-4.42,4.42A4.43,4.43,0,0,0,38.33,68.18ZM13.25,52.91a5.8,5.8,0,1,0-5.8,5.8A5.79,5.79,0,0,0,13.25,52.91ZM11.87,22.73a4.42,4.42,0,1,0-4.42,4.4A4.42,4.42,0,0,0,11.87,22.73Z" transform="translate(-0.25 -0.26)"/><path class="cls-1" d="M60.35,47.12a5.8,5.8,0,1,1-5.8,5.8A5.79,5.79,0,0,1,60.35,47.12Zm4.42,5.8a4.42,4.42,0,1,0-4.42,4.42A4.43,4.43,0,0,0,64.77,52.91Z" transform="translate(-0.25 -0.26)"/><path class="cls-2" d="M60.35,48.49a4.42,4.42,0,1,1-4.42,4.42A4.43,4.43,0,0,1,60.35,48.49Z" transform="translate(-0.25 -0.26)"/><path class="cls-1" d="M49.67,49.25A1.39,1.39,0,0,1,50,51a2.37,2.37,0,0,1-.15.21,1.37,1.37,0,0,1-1.07.5,1.31,1.31,0,0,1-.87-.32,52.34,52.34,0,0,0-9.1-5.83,1.7,1.7,0,0,1-1-1.51V37.69a1.39,1.39,0,0,1,.62-1.15,1.58,1.58,0,0,0,.71-1.31V28.64a4.55,4.55,0,0,0-4.55-4.53H33.22a4.55,4.55,0,0,0-4.53,4.53v6.59a1.56,1.56,0,0,0,.7,1.31A1.37,1.37,0,0,1,30,37.69v6.36a1.66,1.66,0,0,1-.94,1.51A50.8,50.8,0,0,0,20,51.39a1.39,1.39,0,0,1-2-.18,1.47,1.47,0,0,1-.31-.66,1.4,1.4,0,0,1,.5-1.3,53.32,53.32,0,0,1,9-5.88v-5a4.38,4.38,0,0,1-1.33-3.12V28.64a7.33,7.33,0,0,1,7.32-7.32h1.41a7.32,7.32,0,0,1,7.32,7.32v6.59a4.3,4.3,0,0,1-1.31,3.12v5A54.84,54.84,0,0,1,49.67,49.25Z" transform="translate(-0.25 -0.26)"/><path class="cls-1" d="M33.91,1.67a5.8,5.8,0,1,1-5.8,5.8A5.79,5.79,0,0,1,33.91,1.67ZM37.8,9.55a4.5,4.5,0,1,0-.11.19l0-.1A.34.34,0,0,0,37.8,9.55Z" transform="translate(-0.25 -0.26)"/><path class="cls-2" d="M38.33,7.46a4.4,4.4,0,0,1-.53,2.09.34.34,0,0,1-.06.1l0,.1a4.4,4.4,0,1,1,.65-2.28Z" transform="translate(-0.25 -0.26)"/><path class="cls-1" d="M7.45,47.12a5.8,5.8,0,1,1-5.8,5.8A5.79,5.79,0,0,1,7.45,47.12Zm4.42,5.8a4.42,4.42,0,1,0-4.42,4.42A4.43,4.43,0,0,0,11.87,52.91Z" transform="translate(-0.25 -0.26)"/><path class="cls-2" d="M7.45,48.49A4.42,4.42,0,1,1,3,52.91,4.43,4.43,0,0,1,7.45,48.49Z" transform="translate(-0.25 -0.26)"/></g></g></svg>