<svg xmlns="http://www.w3.org/2000/svg" viewBox="0 0 68.78 75.34"><defs><style>.cls-1{fill:#3a54db;}.cls-2{fill:#ffcd36;}</style></defs><title>Asset 11</title><g id="Layer_2" data-name="Layer 2"><g id="Layer_1-2" data-name="Layer 1"><path class="cls-1" d="M68.73,50.5a5.19,5.19,0,0,1-2.32,6.2L53.52,64.45l-.08,0-.45.24s0,0-.08,0l-9.11,3.9a5,5,0,0,1-2,.42H22.47a6.58,6.58,0,0,0-4.22,1.53l-5.63,4.69a1.19,1.19,0,0,1-.78.29,1.25,1.25,0,0,1-.86-.36c-.78-.78-2.4-2.34-4.14-4-3-2.83-4.94-4.72-5.39-5.24a5.26,5.26,0,0,1,.41-7.11L12.11,48.6a5.11,5.11,0,0,1,3.3-1.48l18.87-1.27,7.18-2.39A5.1,5.1,0,0,1,48,47a5.23,5.23,0,0,1-3.51,6.28l-7,2.48a.26.26,0,0,0-.15.11.24.24,0,0,0,0,.24.25.25,0,0,0,.21.11h9.17l1.75-.75,12.71-7.63a5.13,5.13,0,0,1,7.47,2.66Zm-3.57,4.11a2.81,2.81,0,0,0,1.28-3.26,2.73,2.73,0,0,0-1.64-1.64,2.61,2.61,0,0,0-2.27.23L49.73,57.61l-.15.06-2.06.88a1.16,1.16,0,0,1-.47.1H37.62a2.65,2.65,0,0,1-2.27-1.27,2.61,2.61,0,0,1-.13-2.6,2.7,2.7,0,0,1,1.49-1.35l7-2.48,0,0a2.84,2.84,0,0,0,1.95-3.31A2.75,2.75,0,0,0,44.34,46a2.7,2.7,0,0,0-1.27-.31,3,3,0,0,0-.84.13l-7.34,2.45a1.72,1.72,0,0,1-.31.06l-19,1.27a2.57,2.57,0,0,0-1.72.78L3.59,60.6a2.83,2.83,0,0,0-.29,3.78c.41.49,3.08,3,5.23,5.1l3.38,3.23,4.79-4a9,9,0,0,1,5.78-2.08h19.3a2.68,2.68,0,0,0,1.06-.23l9.08-3.88.39-.21Z" transform="translate(-0.25 -0.25)"/><path class="cls-2" d="M44.42.25A19.44,19.44,0,1,1,25,19.69,19.47,19.47,0,0,1,44.42.25Zm17,19.43a17,17,0,1,0-17,17A17,17,0,0,0,61.42,19.69Z" transform="translate(-0.25 -0.25)"/><path class="cls-2" d="M53.45,15.14a1.22,1.22,0,0,1-2.44,0c0-1-1-2-2.76-2.68V19c3.08.89,5.2,2.89,5.2,5.24s-2.11,4.35-5.2,5.24v.62a1.23,1.23,0,0,1-2.45,0V30c-.45,0-.91.06-1.38.06S43.5,30,43,30v.15a1.22,1.22,0,0,1-2.44,0v-.62c-3.1-.89-5.21-2.89-5.21-5.24a1.22,1.22,0,1,1,2.44,0c0,1,1.06,2,2.78,2.68V20.38c-3.1-.89-5.21-2.89-5.21-5.24s2.11-4.35,5.21-5.24V9.28a1.22,1.22,0,0,1,2.44,0v.15c.45,0,.91-.06,1.38-.06s.93,0,1.38.06V9.28a1.23,1.23,0,0,1,2.45,0v.62C51.34,10.79,53.45,12.78,53.45,15.14ZM51,24.25c0-1-1-2-2.76-2.68v5.36C50,26.28,51,25.22,51,24.25ZM45.8,27.51V21a12.49,12.49,0,0,0-1.38-.06c-.47,0-.93,0-1.38-.06v6.66a14.7,14.7,0,0,0,2.76,0Zm0-9V11.88a11.77,11.77,0,0,0-2.76,0V18.4a12.49,12.49,0,0,0,1.38.06C44.89,18.47,45.35,18.5,45.8,18.53Zm-5.2-.71V12.46c-1.72.65-2.78,1.7-2.78,2.68S38.89,17.17,40.61,17.82Z" transform="translate(-0.25 -0.25)"/></g></g></svg>